<?xml version="1.0" encoding="utf-8"?>
<!-- Generator: Adobe Illustrator 22.0.1, SVG Export Plug-In . SVG Version: 6.00 Build 0)  -->
<svg version="1.1" id="Слой_1" xmlns="http://www.w3.org/2000/svg" xmlns:xlink="http://www.w3.org/1999/xlink" x="0px" y="0px"
	 viewBox="0 0 215.3 95.7" style="enable-background:new 0 0 215.3 95.7;" xml:space="preserve">
<style type="text/css">
	.st0{clip-path:url(#SVGID_2_);}
	.st1{fill:#002B4E;}
	.st2{clip-path:url(#SVGID_2_);fill:#FFFFFF;}
	.st3{fill:#BDC4CD;}
</style>
<g>
	<g>
		<defs>
			<rect id="SVGID_1_" width="215.3" height="95.7"/>
		</defs>
		<clipPath id="SVGID_2_">
			<use xlink:href="#SVGID_1_"  style="overflow:visible;"/>
		</clipPath>
		<g class="st0">
			<path class="st1" d="M178.7,28.5v5.2h-7.9c1.1,3.4,4.8,3.6,7,3.6h0.9V43h-1.4c-3.9,0-8.5-0.2-11.4-5.5c-1.1-1.9-1.5-4-1.5-6.2
				c0-2.2,0.4-4.5,1.5-6.5c2.9-5.3,7.4-5.6,11.3-5.6h1.4v5.7h-0.8c-2.3,0-6,0.2-7.1,3.6H178.7z"/>
			<path class="st1" d="M138.1,36.6c0.6,0.7,2.2,0.6,3.4,0.6h3.3V43h-3.6c-2,0-4.6,0.1-6.4-1c-3.1-1.8-3-5.3-3-7.7v-15h5.9v15.3
				C137.6,35.2,137.6,36.1,138.1,36.6z"/>
			<path class="st1" d="M144,19.2h6.2l3.5,16.6h0.1l3.5-16.6h6.2l-4.4,18c-1.1,4.6-2.3,6.1-5.3,6.1c-3,0-4.2-1.5-5.3-6L144,19.2z"/>
			<rect x="121.7" y="19.2" class="st1" width="5.9" height="23.8"/>
			<path class="st1" d="M103.8,43v-5.7h5.2c1.5,0,3.2,0.2,3.2-1.2c0-1.2-1.3-1.8-3-3c-1.9-1.3-3.8-2.5-4.8-4.3
				c-0.5-1-0.7-2.1-0.7-3.2c0-1.3,0.3-2.7,1.1-3.8c1.9-2.6,4.4-2.5,7.5-2.5h4.8v5.7h-5.3c-1,0-2,0-2,1c0,1,1.4,1.6,3.6,3.1
				c1.7,1.1,3.5,2.4,4.4,4.1c0.6,1.1,0.8,2.3,0.8,3.6c0,0.7-0.1,1.5-0.4,2.1c-1.5,3.9-5,4.2-9,4.2H103.8z"/>
			<g>
				<path class="st1" d="M125.7,72.1c-1.5,3.9-5,4.2-9,4.2h-5.4v-5.7h5.2c1.5,0,3.2,0.2,3.2-1.2c0-1.2-1.3-1.8-3-3
					c-1.9-1.3-3.8-2.5-4.8-4.3c-0.5-1-0.7-2.1-0.7-3.2c0-1.3,0.3-2.7,1.1-3.8c1.9-2.6,4.4-2.5,7.5-2.5h4.8v5.7h-5.3c-1,0-2,0-2,1
					c0,1,1.4,1.6,3.6,3.1c1.7,1.1,3.5,2.4,4.4,4.1c0.6,1.1,0.8,2.3,0.8,3.6C126,70.7,125.9,71.4,125.7,72.1z"/>
				<polygon class="st1" points="142,58.2 137.6,58.2 137.6,76.2 131.7,76.2 131.7,58.2 127.4,58.2 127.4,52.5 142,52.5 				"/>
				<path class="st1" d="M159.5,60.3c0,1.9-0.2,5.9-4.8,7.5v8.5h-5.9v-8.5c-4.3-1.4-4.8-5.1-4.8-7.5v-7.8h5.9v7.9
					c0,2.1,1.4,2.3,1.8,2.3c0.5,0,1.8-0.2,1.8-2.3v-7.9h5.9V60.3z"/>
				<path class="st1" d="M176.4,76.2h-3.6c-2,0-4.6,0.1-6.4-1c-3.1-1.8-3-5.3-3-7.7v-15h5.9v15.3c0,0.7,0,1.7,0.4,2.2
					c0.6,0.7,2.2,0.7,3.4,0.7h3.3V76.2z"/>
				<path class="st1" d="M191.5,58.2h-0.8c-2.3,0-6,0.2-7.1,3.6h7.9v5.2h-7.9c1.1,3.4,4.8,3.6,7,3.6h0.9v5.7h-1.4
					c-3.9,0-8.5-0.2-11.4-5.5c-1.1-1.9-1.5-4-1.5-6.2c0-2.2,0.4-4.5,1.5-6.5c2.9-5.3,7.4-5.6,11.3-5.6h1.4V58.2z"/>
			</g>
			<path class="st1" d="M198.2,36.9v6h-5.9v-5.8c0-0.6,0-1.9-0.7-2.6c-0.5-0.4-1.3-0.5-1.7-0.5h-0.7v-5.5h0.6c1.2,0,2.1-0.9,2.1-2
				c0-1-0.6-2.1-2-2.1c-2.2,0-2.2,2.2-2.2,3.2V43h-5.9V27.4c0-5.2,3.3-8.5,8.3-8.5c5.4,0,7.7,3.6,7.7,7.1c0,2.2-1.1,4.3-3.6,4.9
				c0.8,0.1,1.8,0.4,2.4,1C198.3,33.2,198.2,35.3,198.2,36.9z"/>
		</g>
		<line class="st2" x1="115.6" y1="-13.1" x2="-22.9" y2="-13.1"/>
		<g class="st0">
			<path class="st3" d="M7.8,24.1c0-8.5,7-15.5,15.5-15.5h46.2c8.5,0,15.5,7,15.5,15.5V71c0,8.5-7,15.5-15.5,15.5H23.3
				c-8.5,0-15.5-7-15.5-15.5V24.1z"/>
			<g>
				<path class="st1" d="M58.2,77.3h9.9c8.4,0,8.9-6.5,8.9-10.7V52.3l-12,5.1v11.2c0,1.5-1.2,2-1.9,2c-1.1,0-1.9-0.9-1.9-2V57.6
					c0-2.4,0.7-4.2,3.2-5.3l8.9-4c3.4-1.5,3.7-5.8,3.7-8.1V28c0-4.2-0.5-10.7-8.9-10.7h-9.9c-8.4,0-8.9,6.5-8.9,10.7v13l12-5.1v-10
					c0-1,0.8-2,1.9-2c0.7,0,1.9,0.4,1.9,2v9.5c0,2.1,0.2,3.9-2.7,5.3L53.7,45c-4.1,2.1-4.5,6.3-4.5,8.6v13
					C49.3,70.8,49.8,77.3,58.2,77.3z"/>
				<path class="st1" d="M25.2,77.9h9.9c8.4,0,8.9-6.5,8.9-10.7V54.2c0-2.2-0.3-6.5-4.5-8.6L31,41.2c-2.9-1.5-2.7-3.2-2.7-5.3v-9.5
					c0-1.5,1.2-2,1.9-2c1.1,0,1.9,0.9,1.9,2v10l12,5.1v-13c0-4.2-0.5-10.7-8.9-10.7h-9.9c-8.4,0-8.9,6.5-8.9,10.7v12.3
					c0,2.2,0.2,6.5,3.7,8.1l8.9,4c2.5,1.1,3.2,2.9,3.2,5.3v11.1c0,1-0.8,2-1.9,2c-0.7,0-1.9-0.4-1.9-2V58l-12-5.1v14.2
					C16.3,71.3,16.8,77.9,25.2,77.9z"/>
			</g>
		</g>
	</g>
</g>
</svg>
